<svg xmlns="http://www.w3.org/2000/svg" viewBox="0 0 1000 909.946" aria-label="BearingPoint">
  <path d="M567.702 426.683c48.067-42.87 74.049-107.824 74.049-179.276C641.751 101.91 537.824.58 383.233.58H0v909.366h392.326c168.88 0 281.903-107.824 281.903-267.613 0-90.938-38.974-172.78-106.527-215.65Zm-398.82-280.605h193.566c67.552 0 107.823 42.87 107.823 110.422 0 67.555-41.57 110.423-106.526 110.423H168.882V146.078Zm205.256 618.37H168.882V512.424h205.256c77.945 0 128.611 46.767 128.611 126.012s-48.067 126.012-128.611 126.012ZM850.657 0c-82.468 0-149.344 66.877-149.344 149.344s66.876 149.343 149.344 149.343c82.465 0 149.343-66.877 149.343-149.343S933.173 0 850.657 0Zm0 221.002c-39.597 0-71.659-32.114-71.659-71.658s32.113-71.658 71.659-71.658c39.543 0 71.656 32.114 71.656 71.658s-32.113 71.658-71.656 71.658Z" fill="currentColor"/>
</svg>
